<svg xmlns="http://www.w3.org/2000/svg" width="560" height="170" viewBox="0 0 560 170" fill="none" role="img" aria-labelledby="title desc">
<title id="title">Discourse extension — Subscription-aware reply quotas</title>
<desc id="desc">Original geometric artwork in midnight blue, electric blue, and teal for Arya Tavana's GitHub profile.</desc>
<defs>
  <linearGradient id="accent" x1="0" y1="0" x2="1" y2="1"><stop stop-color="#438BFF"/><stop offset="1" stop-color="#47E0CF"/></linearGradient>
  <radialGradient id="glow"><stop stop-color="#164471" stop-opacity=".6"/><stop offset="1" stop-color="#0B1220" stop-opacity="0"/></radialGradient>
  <pattern id="grid" width="40" height="40" patternUnits="userSpaceOnUse"><path d="M40 0H0V40" stroke="#5F88B7" stroke-opacity=".09"/></pattern>
</defs>
<g font-family="Arial, Helvetica, sans-serif">
<rect x=".5" y=".5" width="559" height="169" rx="22" fill="#0B1220" stroke="#26384F"/>
<ellipse cx="480" cy="110" rx="175" ry="150" fill="url(#glow)"/>
<text x="27" y="42" fill="#67DFCF" font-family="monospace" font-size="16" letter-spacing="1.5">03 / OPEN SOURCE</text>
<text x="25" y="98" fill="#EDF5FF" font-size="38" font-weight="700" letter-spacing="-1">Reply Limits</text>
<text x="28" y="136" fill="#A8BDD5" font-size="20">Community, with structure.</text>
<path d="M423 38H495C503 38 510 45 510 53V103C510 111 503 118 495 118H454L429 137V118H423C415 118 408 111 408 103V53C408 45 415 38 423 38Z" fill="#123139" stroke="#4BA79C" stroke-width="1.5"/>
<path d="M429 62H488M429 77H477" stroke="#80DCCE" stroke-width="4" stroke-linecap="round"/>
<rect x="429" y="94" width="18" height="7" rx="3" fill="#47E0CF"/><rect x="452" y="94" width="18" height="7" rx="3" fill="#47E0CF"/><rect x="475" y="94" width="18" height="7" rx="3" fill="#315A5D"/>

</g>
</svg>
